<svg width="425" height="291" xmlns="http://www.w3.org/2000/svg"><path d="M190.713 1.161C103.19 6.253 42.105 38.688 30.41 86.266c-1.723 6.935-2.154 10.622-2.187 18.478 0 4.302-.132 7.374-.331 7.55-.232.219-.199.482.066.702.199.175.464 1.053.596 1.975.232 1.536.332 1.624 1.458 1.624 1.027 0 2.816.834 1.855.878-.63 0-13.284 3.95-22.327 6.89l-9.044 2.985.199 6.364c.53 14.836 1.325 23.745 2.848 31.382.829 4.17 2.618 10.885 3.081 11.456.067.088 1.889-.79 4.075-1.975 5.863-3.16 5.4-3.116 5.035-.395-.463 3.511-.463 14.265.033 17.38 1.392 9.394 4.837 16.548 9.773 20.279l1.921 1.448-.165 2.019c-.133 1.097-.497 4.96-.862 8.603-1.358 13.386-1.789 28.748-1.027 37.088.862 9.348 3.015 16.327 6.295 20.321 2.716 3.38 4.637 4.258 10.269 4.74 58.105 5.004 126.214 6.013 196.941 3.029 26.734-1.141 57.012-2.897 90.768-5.267 41.111-2.897 49.46-3.555 51.016-4.214 5.135-2.106 8.348-7.68 9.839-17.161.563-3.511.696-5.925.696-13.3.033-9.743-.067-11.191-2.286-34.849-.795-8.646-1.458-15.976-1.458-16.327 0-.307.63-.79 1.392-1.097 1.788-.615 4.472-2.985 5.598-4.916 1.358-2.239 2.584-5.75 3.346-9.437.927-4.564 1.027-16.283.166-22.428-1.359-9.524-4.506-20.19-7.95-26.95-.862-1.667-1.326-2.94-1.061-2.94.232 0 1.59.307 3.015.658 9.143 2.239 21.433 4.17 26.534 4.126 7.487-.044 7.984-2.194 1.79-7.637-3.512-3.072-14.047-10.139-22.627-15.142-3.047-1.8-5.499-3.292-5.466-3.336.034-.044 2.087-.307 4.539-.57 5.035-.571 5.963-.79 5.963-1.537 0-1.14-5.632-2.765-17.06-4.872-3.446-.614-6.328-1.185-6.361-1.273-.033-.043.232-1.93.563-4.213.828-5.399.861-12.114.033-17.337-6.36-40.775-61.384-70.577-142.645-77.292-9.475-.746-37.434-1.141-46.544-.615z" fill="#5a4215" fill-rule="nonzero"/></svg>