<svg aria-hidden="true" style="position: absolute; width: 0; height: 0; overflow: hidden;" version="1.1" xmlns="http://www.w3.org/2000/svg" xmlns:xlink="http://www.w3.org/1999/xlink">
<defs>
<symbol id="icon-tongue2" viewBox="0 0 32 32">
<title>tongue2</title>
<path d="M16 0c-8.837 0-16 7.163-16 16s7.163 16 16 16 16-7.163 16-16-7.163-16-16-16zM10 8c1.105 0 2 0.895 2 2s-0.895 2-2 2-2-0.895-2-2 0.895-2 2-2zM24 20h-2v3c0 1.657-1.343 3-3 3s-3-1.343-3-3v-3h-8v-2h16v2zM22 12c-1.105 0-2-0.895-2-2s0.895-2 2-2 2 0.895 2 2-0.895 2-2 2z"></path>
</symbol>
<symbol id="icon-sad2" viewBox="0 0 32 32">
<title>sad2</title>
<path d="M16 0c-8.837 0-16 7.163-16 16s7.163 16 16 16 16-7.163 16-16-7.163-16-16-16zM22 8c1.105 0 2 0.895 2 2s-0.895 2-2 2-2-0.895-2-2 0.895-2 2-2zM10 8c1.105 0 2 0.895 2 2s-0.895 2-2 2-2-0.895-2-2 0.895-2 2-2zM22.003 24.398c-1.224-2.036-3.454-3.398-6.003-3.398s-4.779 1.362-6.003 3.398l-2.573-1.544c1.749-2.908 4.935-4.855 8.576-4.855s6.827 1.946 8.576 4.855l-2.573 1.544z"></path>
</symbol>
<symbol id="icon-wink2" viewBox="0 0 32 32">
<title>wink2</title>
<path d="M16 0c-8.837 0-16 7.163-16 16s7.163 16 16 16c8.837 0 16-7.163 16-16s-7.163-16-16-16zM22 8c1.105 0 2 1.343 2 3s-0.895 3-2 3-2-1.343-2-3 0.895-3 2-3zM11 9.752c1.864 0 3.188 0.698 3.188 1.79 0 0.231 0.119 1.344-0.005 1.55-0.463-0.768-1.713-1.318-3.182-1.318s-2.719 0.55-3.182 1.318c-0.124-0.206-0.005-1.319-0.005-1.55 0-1.092 1.324-1.79 3.187-1.79zM15.636 26c-3.726 0-6.996-2.009-8.84-5.030 2.2 1.721 6.079 2.057 10.165 1.249 4.383-0.866 7.785-2.861 9.014-5.519-0.677 5.249-5.047 9.299-10.339 9.299z"></path>
</symbol>
<symbol id="icon-grin2" viewBox="0 0 32 32">
<title>grin2</title>
<path d="M16 0c-8.837 0-16 7.163-16 16s7.163 16 16 16c8.837 0 16-7.163 16-16s-7.163-16-16-16zM22 7.375c1.999 0 3.625 1.626 3.625 3.625 0 0.199-0.017 0.402-0.051 0.604-0.051 0.301-0.311 0.521-0.616 0.521s-0.566-0.22-0.616-0.522c-0.192-1.146-1.177-1.666-2.341-1.666s-2.149 0.52-2.341 1.666c-0.050 0.301-0.311 0.522-0.616 0.522-0 0 0 0-0 0-0.305 0-0.566-0.22-0.616-0.521-0.034-0.201-0.051-0.404-0.051-0.604 0-1.999 1.626-3.625 3.625-3.625zM10 7.375c1.999 0 3.625 1.626 3.625 3.625 0 0.199-0.017 0.402-0.051 0.604-0.051 0.301-0.311 0.521-0.616 0.521s-0.566-0.22-0.616-0.522c-0.193-1.146-1.177-1.666-2.341-1.666s-2.149 0.52-2.341 1.666c-0.051 0.301-0.311 0.522-0.616 0.522 0 0 0 0 0 0-0.305 0-0.566-0.22-0.616-0.521-0.034-0.201-0.051-0.404-0.051-0.604 0-1.999 1.626-3.625 3.625-3.625zM6 18h6v7.745c-3.44-0.894-6-4.035-6-7.745zM14 26v-8h4v8h-4zM20 25.745v-7.745h6c0 3.71-2.559 6.851-6 7.745z"></path>
</symbol>
<symbol id="icon-angry2" viewBox="0 0 32 32">
<title>angry2</title>
<path d="M16 0c-8.837 0-16 7.163-16 16s7.163 16 16 16 16-7.163 16-16-7.163-16-16-16zM18.003 11.891c0.064-1.483 1.413-2.467 2.55-3.036 1.086-0.543 2.16-0.814 2.205-0.826 0.536-0.134 1.079 0.192 1.213 0.728s-0.192 1.079-0.728 1.213c-0.551 0.139-1.204 0.379-1.779 0.667 0.333 0.357 0.537 0.836 0.537 1.363 0 1.105-0.895 2-2 2s-2-0.895-2-2c0-0.037 0.001-0.073 0.003-0.109zM8.030 8.758c0.134-0.536 0.677-0.862 1.213-0.728 0.045 0.011 1.119 0.283 2.205 0.826 1.137 0.569 2.486 1.553 2.55 3.036 0.002 0.036 0.003 0.072 0.003 0.109 0 1.105-0.895 2-2 2s-2-0.895-2-2c0-0.527 0.204-1.005 0.537-1.363-0.575-0.288-1.228-0.528-1.779-0.667-0.536-0.134-0.861-0.677-0.728-1.213zM22.003 24.398c-1.224-2.036-3.454-3.398-6.003-3.398s-4.779 1.362-6.003 3.398l-2.573-1.544c1.749-2.908 4.935-4.855 8.576-4.855s6.827 1.946 8.576 4.855l-2.573 1.544z"></path>
</symbol>
<symbol id="icon-star-full" viewBox="0 0 32 32">
<title>star-full</title>
<path d="M32 12.408l-11.056-1.607-4.944-10.018-4.944 10.018-11.056 1.607 8 7.798-1.889 11.011 9.889-5.199 9.889 5.199-1.889-11.011 8-7.798z"></path>
</symbol>
<symbol id="icon-neutral2" viewBox="0 0 32 32">
<title>neutral2</title>
<path d="M16 0c-8.837 0-16 7.163-16 16s7.163 16 16 16c8.837 0 16-7.163 16-16s-7.163-16-16-16zM20 24h-8v-2h8v2zM22 8c1.105 0 2 0.895 2 2s-0.895 2-2 2-2-0.895-2-2c0-1.105 0.895-2 2-2zM10 8c1.105 0 2 0.895 2 2s-0.895 2-2 2-2-0.895-2-2c0-1.105 0.895-2 2-2z"></path>
</symbol>
<symbol id="icon-medal" viewBox="0 0 32 32">
<title>medal</title>
<path d="M9.193 20.037c-1.25 0-1.416-0.584-1.416-0.584l-4.875 9.58 3.909-0.438 2.162 3.25c0 0 4.5-9.393 4.5-9.33-2.33-0.056-1.405-2.415-4.28-2.478zM20.182 21.065c0.607-1.020 1.504-1.537 2.691-1.553s1.787-0.617 1.803-1.804c0.016-1.186 0.533-2.083 1.553-2.689s1.24-1.428 0.66-2.463-0.58-2.071 0-3.106 0.359-1.856-0.66-2.463-1.537-1.503-1.553-2.69c-0.016-1.186-0.617-1.787-1.803-1.803-1.188-0.016-2.084-0.533-2.691-1.553-0.605-1.020-1.428-1.24-2.463-0.66s-2.070 0.58-3.105 0-1.856-0.359-2.463 0.66c-0.607 1.020-1.503 1.537-2.69 1.553s-1.787 0.618-1.803 1.804c-0.016 1.187-0.533 2.083-1.553 2.69s-1.24 1.428-0.66 2.463c0.58 1.035 0.58 2.071 0 3.106s-0.359 1.856 0.66 2.463c1.020 0.607 1.537 1.504 1.553 2.689 0.016 1.187 0.617 1.788 1.803 1.804s2.083 0.533 2.69 1.553c0.606 1.020 1.428 1.239 2.463 0.66s2.070-0.579 3.105 0 1.857 0.359 2.463-0.661zM17.518 16.004h-1.781v-6.726c-0.651 0.609-1.42 1.059-2.305 1.351v-1.617c0.465-0.152 0.971-0.44 1.517-0.865s0.92-0.92 1.123-1.486h1.446v9.343zM24.16 19.828c-3.562 0.375-2.838 1.256-3.65 1.943-0.938 1-2.107 0.807-2.107 0.807l5.5 9.455 1.35-3.5 3.846 0.5-4.939-9.205z"></path>
</symbol>
<symbol id="icon-location" viewBox="0 0 32 32">
<title>location</title>
<path d="M16 0c-5.523 0-10 4.477-10 10 0 10 10 22 10 22s10-12 10-22c0-5.523-4.477-10-10-10zM16 16c-3.314 0-6-2.686-6-6s2.686-6 6-6 6 2.686 6 6-2.686 6-6 6z"></path>
</symbol>
<symbol id="icon-logo" viewBox="0 0 425 291">
<path d="M190.713 1.161C103.19 6.253 42.105 38.688 30.41 86.266c-1.723 6.935-2.154 10.622-2.187 18.478 0 4.302-.132 7.374-.331 7.55-.232.219-.199.482.066.702.199.175.464 1.053.596 1.975.232 1.536.332 1.624 1.458 1.624 1.027 0 2.816.834 1.855.878-.63 0-13.284 3.95-22.327 6.89l-9.044 2.985.199 6.364c.53 14.836 1.325 23.745 2.848 31.382.829 4.17 2.618 10.885 3.081 11.456.067.088 1.889-.79 4.075-1.975 5.863-3.16 5.4-3.116 5.035-.395-.463 3.511-.463 14.265.033 17.38 1.392 9.394 4.837 16.548 9.773 20.279l1.921 1.448-.165 2.019c-.133 1.097-.497 4.96-.862 8.603-1.358 13.386-1.789 28.748-1.027 37.088.862 9.348 3.015 16.327 6.295 20.321 2.716 3.38 4.637 4.258 10.269 4.74 58.105 5.004 126.214 6.013 196.941 3.029 26.734-1.141 57.012-2.897 90.768-5.267 41.111-2.897 49.46-3.555 51.016-4.214 5.135-2.106 8.348-7.68 9.839-17.161.563-3.511.696-5.925.696-13.3.033-9.743-.067-11.191-2.286-34.849-.795-8.646-1.458-15.976-1.458-16.327 0-.307.63-.79 1.392-1.097 1.788-.615 4.472-2.985 5.598-4.916 1.358-2.239 2.584-5.75 3.346-9.437.927-4.564 1.027-16.283.166-22.428-1.359-9.524-4.506-20.19-7.95-26.95-.862-1.667-1.326-2.94-1.061-2.94.232 0 1.59.307 3.015.658 9.143 2.239 21.433 4.17 26.534 4.126 7.487-.044 7.984-2.194 1.79-7.637-3.512-3.072-14.047-10.139-22.627-15.142-3.047-1.8-5.499-3.292-5.466-3.336.034-.044 2.087-.307 4.539-.57 5.035-.571 5.963-.79 5.963-1.537 0-1.14-5.632-2.765-17.06-4.872-3.446-.614-6.328-1.185-6.361-1.273-.033-.043.232-1.93.563-4.213.828-5.399.861-12.114.033-17.337-6.36-40.775-61.384-70.577-142.645-77.292-9.475-.746-37.434-1.141-46.544-.615z" fill="currentColor" fill-rule="nonzero"/>
</symbol>
</defs>
</svg>
